<svg width="24" height="24" viewBox="0 0 24 24" fill="none" xmlns="http://www.w3.org/2000/svg">
<path d="M11.5948 12.4057H5.80529C5.69046 12.4057 5.59421 12.3667 5.51654 12.2889C5.43886 12.211 5.40002 12.1145 5.40002 11.9994C5.40002 11.8843 5.43886 11.7881 5.51654 11.7109C5.59421 11.6337 5.69046 11.5951 5.80529 11.5951H11.5948V5.80565C11.5948 5.69083 11.6337 5.59458 11.7116 5.5169C11.7894 5.43923 11.8859 5.40039 12.001 5.40039C12.1162 5.40039 12.2123 5.43923 12.2895 5.5169C12.3667 5.59458 12.4053 5.69083 12.4053 5.80565V11.5951H18.1948C18.3096 11.5951 18.4058 11.6341 18.4835 11.7119C18.5612 11.7898 18.6 11.8863 18.6 12.0014C18.6 12.1165 18.5612 12.2127 18.4835 12.2899C18.4058 12.3671 18.3096 12.4057 18.1948 12.4057H12.4053V18.1951C12.4053 18.31 12.3664 18.4062 12.2885 18.4839C12.2106 18.5616 12.1141 18.6004 11.999 18.6004C11.8839 18.6004 11.7877 18.5616 11.7106 18.4839C11.6334 18.4062 11.5948 18.31 11.5948 18.1951V12.4057Z" fill="#F1F1F5"/>
</svg>
