<svg width="467" height="309" viewBox="0 0 467 309" fill="none" xmlns="http://www.w3.org/2000/svg">
<rect width="467" height="309" fill="#353542"/>
<path d="M195.6 160.084C195.49 160.084 195.4 159.994 195.4 159.884V144.819C195.4 144.709 195.49 144.619 195.6 144.619H197.641C197.711 144.619 197.777 144.656 197.813 144.717L204.307 155.606C204.386 155.739 204.29 155.909 204.135 155.909H203.604C203.45 155.909 203.353 155.741 203.432 155.607L209.819 144.718C209.855 144.657 209.921 144.619 209.992 144.619H212.032C212.142 144.619 212.232 144.709 212.232 144.819L212.253 159.884C212.253 159.994 212.164 160.084 212.053 160.084H209.747C209.637 160.084 209.547 159.995 209.547 159.884L209.526 149.084C209.526 148.973 209.615 148.883 209.726 148.883H209.745C209.9 148.883 209.996 149.052 209.917 149.186L204.523 158.219C204.487 158.28 204.422 158.317 204.352 158.317H203.302C203.232 158.317 203.167 158.28 203.131 158.22L197.653 149.187C197.572 149.054 197.668 148.883 197.824 148.883H197.929C198.039 148.883 198.129 148.973 198.129 149.083V159.884C198.129 159.994 198.039 160.084 197.929 160.084H195.6Z" fill="#F1F1F5" fill-opacity="0.3"/>
<path d="M223.41 160.305C222.207 160.305 221.1 160.106 220.088 159.708C219.076 159.311 218.196 158.758 217.448 158.052C216.7 157.33 216.12 156.49 215.71 155.533C215.299 154.561 215.094 153.501 215.094 152.352C215.094 151.203 215.299 150.15 215.71 149.192C216.12 148.22 216.7 147.381 217.448 146.674C218.196 145.952 219.076 145.393 220.088 144.995C221.1 144.597 222.2 144.398 223.388 144.398C224.591 144.398 225.691 144.597 226.688 144.995C227.7 145.393 228.58 145.952 229.329 146.674C230.077 147.381 230.656 148.22 231.067 149.192C231.477 150.15 231.683 151.203 231.683 152.352C231.683 153.501 231.477 154.561 231.067 155.533C230.656 156.505 230.077 157.345 229.329 158.052C228.58 158.758 227.7 159.311 226.688 159.708C225.691 160.106 224.598 160.305 223.41 160.305ZM223.388 157.786C224.165 157.786 224.884 157.654 225.544 157.389C226.204 157.124 226.776 156.748 227.26 156.262C227.744 155.761 228.118 155.187 228.382 154.539C228.661 153.876 228.8 153.147 228.8 152.352C228.8 151.556 228.661 150.835 228.382 150.187C228.118 149.524 227.744 148.949 227.26 148.463C226.776 147.963 226.204 147.58 225.544 147.315C224.884 147.05 224.165 146.917 223.388 146.917C222.611 146.917 221.892 147.05 221.232 147.315C220.587 147.58 220.015 147.963 219.516 148.463C219.032 148.949 218.65 149.524 218.372 150.187C218.108 150.835 217.976 151.556 217.976 152.352C217.976 153.132 218.108 153.854 218.372 154.517C218.65 155.18 219.032 155.761 219.516 156.262C220 156.748 220.572 157.124 221.232 157.389C221.892 157.654 222.611 157.786 223.388 157.786Z" fill="#F1F1F5" fill-opacity="0.3"/>
<path d="M241.689 160.305C240.486 160.305 239.379 160.113 238.367 159.731C237.369 159.333 236.497 158.781 235.749 158.074C235 157.352 234.421 156.505 234.01 155.533C233.6 154.561 233.394 153.501 233.394 152.352C233.394 151.203 233.6 150.142 234.01 149.17C234.421 148.198 235 147.359 235.749 146.652C236.511 145.93 237.399 145.378 238.411 144.995C239.423 144.597 240.53 144.398 241.733 144.398C243.038 144.398 244.212 144.612 245.253 145.039C246.248 145.442 247.094 146.021 247.79 146.776C247.861 146.854 247.856 146.975 247.781 147.049L246.253 148.546C246.174 148.622 246.049 148.621 245.969 148.546C245.408 148.012 244.802 147.617 244.153 147.359C243.464 147.064 242.701 146.917 241.865 146.917C241.058 146.917 240.31 147.05 239.621 147.315C238.931 147.58 238.337 147.955 237.839 148.441C237.34 148.927 236.951 149.502 236.673 150.165C236.409 150.827 236.277 151.556 236.277 152.352C236.277 153.132 236.409 153.854 236.673 154.517C236.951 155.18 237.34 155.761 237.839 156.262C238.337 156.748 238.924 157.124 239.599 157.389C240.273 157.654 241.022 157.786 241.843 157.786C242.606 157.786 243.339 157.669 244.043 157.433C244.701 157.204 245.329 156.838 245.926 156.337C246.015 156.262 246.149 156.275 246.22 156.368L247.6 158.184C247.665 158.27 247.65 158.393 247.564 158.459C246.792 159.048 245.905 159.501 244.901 159.819C243.845 160.143 242.774 160.305 241.689 160.305ZM245.184 157.987C245.085 157.973 245.011 157.889 245.011 157.789V152.375C245.011 152.265 245.101 152.175 245.211 152.175H247.517C247.628 152.175 247.717 152.265 247.717 152.375V158.109C247.717 158.23 247.61 158.324 247.49 158.307L245.184 157.987Z" fill="#F1F1F5" fill-opacity="0.3"/>
<path d="M249.4 160.084C249.255 160.084 249.159 159.935 249.218 159.802L255.969 144.738C256.001 144.666 256.073 144.619 256.152 144.619H258.709C258.788 144.619 258.859 144.666 258.891 144.737L265.664 159.802C265.723 159.934 265.627 160.084 265.482 160.084H262.931C262.85 160.084 262.778 160.036 262.747 159.963L256.955 146.422C256.899 146.29 256.996 146.144 257.139 146.144H257.678C257.821 146.144 257.918 146.29 257.862 146.422L252.092 159.962C252.06 160.036 251.988 160.084 251.908 160.084H249.4ZM252.562 156.505C252.424 156.505 252.328 156.37 252.372 156.24L253.006 154.387C253.033 154.306 253.109 154.252 253.195 154.252H261.225C261.311 154.252 261.387 154.306 261.415 154.387L262.048 156.24C262.092 156.37 261.996 156.505 261.859 156.505H252.562Z" fill="#F1F1F5" fill-opacity="0.3"/>
<path fill-rule="evenodd" clip-rule="evenodd" d="M152 140C150.895 140 150 140.895 150 142V161.097C150 162.201 150.895 163.097 152 163.097H176.716L182.365 167.768C183.017 168.307 184.002 167.843 184.002 166.997L184.002 161.13C184.002 161.119 184.002 161.108 184.002 161.097V142C184.002 140.895 183.107 140 182.002 140H152ZM156.667 150.043C157.219 150.043 157.667 150.491 157.667 151.043V151.399C157.667 152.463 158.404 153.678 160.13 154.701C161.822 155.705 164.249 156.369 167.001 156.369C169.753 156.369 172.179 155.705 173.872 154.701C175.597 153.678 176.335 152.463 176.335 151.399V151.043C176.335 150.491 176.783 150.043 177.335 150.043H178.002C178.554 150.043 179.002 150.491 179.002 151.043V151.399C179.002 153.828 177.351 155.777 175.216 157.043C173.048 158.329 170.14 159.081 167.001 159.081C163.861 159.081 160.954 158.329 158.786 157.043C156.651 155.777 155 153.828 155 151.399V151.043C155 150.491 155.448 150.043 156 150.043H156.667Z" fill="#F1F1F5" fill-opacity="0.3"/>
<path d="M268.231 160.084C268.121 160.084 268.031 159.994 268.031 159.884V158.233C268.031 158.187 268.047 158.143 268.076 158.107L277.739 146.258C277.84 146.134 278.039 146.173 278.085 146.326L278.227 146.791C278.266 146.92 278.17 147.05 278.036 147.05H268.385C268.275 147.05 268.185 146.96 268.185 146.85V144.819C268.185 144.709 268.275 144.619 268.385 144.619H280.68C280.791 144.619 280.88 144.709 280.88 144.819V146.47C280.88 146.516 280.864 146.561 280.835 146.597L271.167 158.452C271.067 158.575 270.871 158.538 270.822 158.388L270.669 157.916C270.627 157.786 270.723 157.654 270.859 157.654H280.966C281.077 157.654 281.166 157.743 281.166 157.854V159.884C281.166 159.994 281.077 160.084 280.966 160.084H268.231Z" fill="#F1F1F5" fill-opacity="0.3"/>
<path d="M290.611 160.305C289.408 160.305 288.301 160.106 287.289 159.708C286.277 159.311 285.397 158.758 284.648 158.052C283.9 157.33 283.321 156.49 282.91 155.533C282.5 154.561 282.294 153.501 282.294 152.352C282.294 151.203 282.5 150.15 282.91 149.192C283.321 148.22 283.9 147.381 284.648 146.674C285.397 145.952 286.277 145.393 287.289 144.995C288.301 144.597 289.401 144.398 290.589 144.398C291.792 144.398 292.892 144.597 293.889 144.995C294.901 145.393 295.781 145.952 296.529 146.674C297.277 147.381 297.857 148.22 298.267 149.192C298.678 150.15 298.883 151.203 298.883 152.352C298.883 153.501 298.678 154.561 298.267 155.533C297.857 156.505 297.277 157.345 296.529 158.052C295.781 158.758 294.901 159.311 293.889 159.708C292.892 160.106 291.799 160.305 290.611 160.305ZM290.589 157.786C291.366 157.786 292.085 157.654 292.745 157.389C293.405 157.124 293.977 156.748 294.461 156.262C294.945 155.761 295.319 155.187 295.583 154.539C295.862 153.876 296.001 153.147 296.001 152.352C296.001 151.556 295.862 150.835 295.583 150.187C295.319 149.524 294.945 148.949 294.461 148.463C293.977 147.963 293.405 147.58 292.745 147.315C292.085 147.05 291.366 146.917 290.589 146.917C289.811 146.917 289.093 147.05 288.433 147.315C287.787 147.58 287.215 147.963 286.717 148.463C286.233 148.949 285.851 149.524 285.573 150.187C285.308 150.835 285.176 151.556 285.176 152.352C285.176 153.132 285.308 153.854 285.573 154.517C285.851 155.18 286.233 155.761 286.717 156.262C287.201 156.748 287.773 157.124 288.433 157.389C289.093 157.654 289.811 157.786 290.589 157.786Z" fill="#F1F1F5" fill-opacity="0.3"/>
<path d="M299.611 160.084C299.466 160.084 299.369 159.935 299.428 159.802L306.18 144.738C306.212 144.666 306.283 144.619 306.362 144.619H308.92C308.998 144.619 309.07 144.666 309.102 144.737L315.875 159.802C315.934 159.934 315.837 160.084 315.692 160.084H313.141C313.061 160.084 312.989 160.036 312.957 159.963L307.166 146.422C307.109 146.29 307.206 146.144 307.35 146.144H307.888C308.032 146.144 308.128 146.29 308.072 146.422L302.302 159.962C302.271 160.036 302.198 160.084 302.118 160.084H299.611ZM302.772 156.505C302.635 156.505 302.539 156.37 302.583 156.24L303.216 154.387C303.244 154.306 303.32 154.252 303.405 154.252H311.436C311.522 154.252 311.598 154.306 311.625 154.387L312.259 156.24C312.303 156.37 312.207 156.505 312.069 156.505H302.772Z" fill="#F1F1F5" fill-opacity="0.3"/>
</svg>
