<svg width="24" height="24" viewBox="0 0 24 24" fill="none" xmlns="http://www.w3.org/2000/svg">
<path d="M8.03082 9.23368L11.2269 3.99529C11.3205 3.84144 11.4351 3.73182 11.5707 3.66643C11.7063 3.60105 11.8494 3.56836 12 3.56836C12.1506 3.56836 12.2937 3.60105 12.4293 3.66643C12.5649 3.73182 12.6795 3.84144 12.7731 3.99529L15.9692 9.23368C16.0628 9.38432 16.1096 9.54249 16.1096 9.70821C16.1096 9.87391 16.0711 10.0253 15.9942 10.1625C15.9173 10.2997 15.8115 10.4093 15.6769 10.4914C15.5423 10.5734 15.3852 10.6144 15.2057 10.6144H8.79427C8.61405 10.6144 8.45636 10.573 8.32119 10.4902C8.18603 10.4073 8.0809 10.2981 8.00582 10.1625C7.92889 10.0274 7.89042 9.87729 7.89042 9.71216C7.89042 9.54703 7.93722 9.38753 8.03082 9.23368ZM17.5 21.6144C16.3526 21.6144 15.3798 21.2154 14.5817 20.4173C13.7837 19.6193 13.3846 18.6465 13.3846 17.4991C13.3846 16.3517 13.7837 15.3789 14.5817 14.5808C15.3798 13.7828 16.3526 13.3837 17.5 13.3837C18.6474 13.3837 19.6202 13.7828 20.4182 14.5808C21.2163 15.3789 21.6153 16.3517 21.6153 17.4991C21.6153 18.6465 21.2163 19.6193 20.4182 20.4173C19.6202 21.2154 18.6474 21.6144 17.5 21.6144ZM3.38464 20.2103V14.7853C3.38464 14.5291 3.47129 14.3148 3.64459 14.1424C3.81788 13.97 4.03261 13.8837 4.28879 13.8837H9.71377C9.96995 13.8837 10.1843 13.9704 10.3567 14.1437C10.5291 14.317 10.6153 14.5317 10.6153 14.7879V20.2129C10.6153 20.469 10.5287 20.6834 10.3554 20.8558C10.1821 21.0282 9.96738 21.1144 9.71119 21.1144H4.28622C4.03004 21.1144 3.81573 21.0278 3.64329 20.8545C3.47086 20.6812 3.38464 20.4665 3.38464 20.2103ZM17.4997 20.1145C18.232 20.1145 18.851 19.8617 19.3567 19.3561C19.8625 18.8505 20.1154 18.2316 20.1154 17.4994C20.1154 16.7671 19.8626 16.1481 19.357 15.6424C18.8514 15.1366 18.2325 14.8837 17.5003 14.8837C16.768 14.8837 16.149 15.1365 15.6433 15.6421C15.1375 16.1477 14.8846 16.7666 14.8846 17.4988C14.8846 18.231 15.1374 18.85 15.643 19.3558C16.1486 19.8616 16.7675 20.1145 17.4997 20.1145ZM4.88459 19.6145H9.11539V15.3837H4.88459V19.6145ZM9.83844 9.11449H14.1615L12 5.63754L9.83844 9.11449Z" fill="#9FA6B2"/>
</svg>
