<svg width="50" height="50" viewBox="0 0 50 50" fill="none" xmlns="http://www.w3.org/2000/svg">
<rect width="50" height="50" fill="#6E6E82"/>
<path fill-rule="evenodd" clip-rule="evenodd" d="M15 16C13.8954 16 13 16.8954 13 18V30.6957C13 31.8003 13.8954 32.6957 15 32.6957H32.3126L35.9418 35.6969C36.5938 36.2361 37.5791 35.7724 37.5791 34.9263L37.5794 27.8882C37.5794 27.8805 37.5793 27.8728 37.5792 27.8652V18C37.5792 16.8954 36.6837 16 35.5792 16H15ZM17.5781 23.259C18.1104 23.259 18.5419 23.6905 18.5419 24.2228V24.2389C18.5419 25.0085 19.075 25.8865 20.3223 26.6262C21.5459 27.3519 23.2998 27.8321 25.2892 27.8321C27.2785 27.8321 29.0325 27.3519 30.2561 26.6262C31.5033 25.8865 32.0364 25.0085 32.0364 24.2389V24.2228C32.0364 23.6905 32.4679 23.259 33.0003 23.259V23.259C33.5326 23.259 33.9642 23.6905 33.9642 24.2228V24.2389C33.9642 25.995 32.771 27.4037 31.2274 28.3191C29.6602 29.2486 27.5585 29.7921 25.2892 29.7921C23.0198 29.7921 20.9182 29.2486 19.3509 28.3191C17.8073 27.4037 16.6142 25.995 16.6142 24.2389V24.2228C16.6142 23.6905 17.0457 23.259 17.5781 23.259V23.259Z" fill="#9FA6B2"/>
</svg>
