<svg width="24" height="24" viewBox="0 0 24 24" fill="none" xmlns="http://www.w3.org/2000/svg">
<path d="M11.5202 14.174L8.36908 11.0229C8.32562 10.9794 8.29138 10.9309 8.26638 10.8773C8.24138 10.8237 8.22888 10.7662 8.22888 10.7049C8.22888 10.5824 8.27032 10.476 8.35318 10.3856C8.43603 10.2952 8.54524 10.25 8.68081 10.25H15.3192C15.4548 10.25 15.564 10.2956 15.6468 10.3869C15.7297 10.4781 15.7711 10.5846 15.7711 10.7063C15.7711 10.7367 15.7243 10.8423 15.6307 11.0231L12.4798 14.174C12.4074 14.2464 12.3325 14.2993 12.2552 14.3327C12.1778 14.366 12.0928 14.3827 12 14.3827C11.9072 14.3827 11.8222 14.366 11.7448 14.3327C11.6675 14.2993 11.5926 14.2464 11.5202 14.174Z" fill="#9FA6B2"/>
</svg>
