<svg width="46" height="46" viewBox="0 0 46 46" fill="none" xmlns="http://www.w3.org/2000/svg">
<path fill-rule="evenodd" clip-rule="evenodd" d="M4.00195 7.70813C2.89738 7.70813 2.00195 8.60356 2.00195 9.70813V34.2356C2.00195 35.3401 2.89738 36.2356 4.00195 36.2356H34.9992L42.361 42.3235C43.013 42.8627 43.9983 42.3989 43.9983 41.5529L43.9986 34.2971C43.9992 34.2767 43.9995 34.2561 43.9995 34.2356V9.70813C43.9995 8.60356 43.1041 7.70813 41.9995 7.70813H4.00195ZM10.4711 20.1126C11.0234 20.1126 11.4711 20.5603 11.4711 21.1126V21.787C11.4711 23.102 12.3819 24.6021 14.5131 25.866C16.6038 27.106 19.6006 27.9266 22.9998 27.9266C26.399 27.9266 29.3959 27.106 31.4866 25.866C33.6178 24.6021 34.5286 23.102 34.5286 21.787V21.1126C34.5286 20.5603 34.9763 20.1126 35.5286 20.1126H36.8225C37.3748 20.1126 37.8225 20.5603 37.8225 21.1126V21.787C37.8225 24.7876 35.7838 27.1945 33.1463 28.7587C30.4684 30.3469 26.8774 31.2755 22.9998 31.2755C19.1223 31.2755 15.5313 30.3469 12.8533 28.7587C10.2158 27.1945 8.17716 24.7876 8.17716 21.787V21.1126C8.17716 20.5603 8.62488 20.1126 9.17716 20.1126H10.4711Z" fill="url(#paint0_linear_1059_14245)"/>
<defs>
<linearGradient id="paint0_linear_1059_14245" x1="2.00195" y1="7.70813" x2="44.8307" y2="8.76155" gradientUnits="userSpaceOnUse">
<stop stop-color="#5097FA"/>
<stop offset="1" stop-color="#5363FF"/>
</linearGradient>
</defs>
</svg>
