<svg width="18" height="18" viewBox="0 0 18 18" fill="none" xmlns="http://www.w3.org/2000/svg">
<g id="icon">
<path id="Vector" d="M6.02308 6.926L8.42016 2.9972C8.49036 2.88181 8.5763 2.7996 8.67797 2.75056C8.77966 2.70152 8.88699 2.677 8.99997 2.677C9.11294 2.677 9.22027 2.70152 9.32196 2.75056C9.42363 2.7996 9.50957 2.88181 9.57977 2.9972L11.9768 6.926C12.047 7.03897 12.0821 7.1576 12.0821 7.28189C12.0821 7.40616 12.0533 7.51974 11.9956 7.62261C11.9379 7.7255 11.8586 7.80771 11.7576 7.86925C11.6567 7.93079 11.5389 7.96156 11.4043 7.96156H6.59567C6.46051 7.96156 6.34224 7.93049 6.24086 7.86835C6.13949 7.80621 6.06065 7.7243 6.00433 7.62261C5.94663 7.52129 5.91778 7.4087 5.91778 7.28485C5.91778 7.161 5.95288 7.04138 6.02308 6.926ZM13.125 16.2116C12.2644 16.2116 11.5348 15.9123 10.9363 15.3137C10.3377 14.7152 10.0385 13.9856 10.0385 13.125C10.0385 12.2645 10.3377 11.5349 10.9363 10.9364C11.5348 10.3378 12.2644 10.0385 13.125 10.0385C13.9855 10.0385 14.7151 10.3378 15.3137 10.9364C15.9122 11.5349 16.2115 12.2645 16.2115 13.125C16.2115 13.9856 15.9122 14.7152 15.3137 15.3137C14.7151 15.9123 13.9855 16.2116 13.125 16.2116ZM2.53845 15.1584V11.0897C2.53845 10.8976 2.60344 10.7368 2.73341 10.6075C2.86338 10.4782 3.02443 10.4135 3.21656 10.4135H7.2853C7.47743 10.4135 7.63816 10.4785 7.76749 10.6085C7.89682 10.7385 7.96148 10.8995 7.96148 11.0916V15.1604C7.96148 15.3525 7.89649 15.5132 7.76652 15.6426C7.63655 15.7719 7.4755 15.8366 7.28336 15.8366H3.21463C3.0225 15.8366 2.86176 15.7716 2.73244 15.6416C2.60311 15.5116 2.53845 15.3506 2.53845 15.1584ZM13.1248 15.0866C13.6739 15.0866 14.1382 14.897 14.5175 14.5178C14.8968 14.1386 15.0865 13.6744 15.0865 13.1253C15.0865 12.5761 14.8969 12.1118 14.5177 11.7325C14.1385 11.3532 13.6743 11.1635 13.1252 11.1635C12.576 11.1635 12.1117 11.3531 11.7324 11.7323C11.3531 12.1115 11.1634 12.5757 11.1634 13.1248C11.1634 13.674 11.353 14.1383 11.7322 14.5176C12.1114 14.8969 12.5756 15.0866 13.1248 15.0866ZM3.66341 14.7116H6.83651V11.5385H3.66341V14.7116ZM7.3788 6.8366H10.6211L8.99997 4.22888L7.3788 6.8366Z" fill="#9FA6B2"/>
</g>
</svg>
