<svg width="87" height="84" viewBox="0 0 87 84" fill="none" xmlns="http://www.w3.org/2000/svg">
<path fill-rule="evenodd" clip-rule="evenodd" d="M21 0C19.8954 0 19 0.89543 19 2V30.9962C19 32.1007 19.8954 32.9962 21 32.9962H57.4996L66.3652 40.2643C67.018 40.7994 67.9992 40.3351 67.9992 39.491L67.9996 31.0377C67.9999 31.0239 68 31.01 68 30.9962V2C68 0.895431 67.1046 0 66 0H21Z" fill="#6E6E82"/>
<path fill-rule="evenodd" clip-rule="evenodd" d="M29.0485 14.3477C29.6007 14.3477 30.0485 14.7954 30.0485 15.3477V16.2844C30.0485 17.8054 31.1111 19.5405 33.5976 21.0024C36.037 22.4365 39.5335 23.3857 43.4994 23.3857C47.4654 23.3857 50.9619 22.4365 53.4012 21.0024C55.8878 19.5405 56.9504 17.8054 56.9504 16.2844V15.3477C56.9504 14.7954 57.3981 14.3477 57.9504 14.3477H59.7936C60.3458 14.3477 60.7936 14.7954 60.7936 15.3477V16.2844C60.7936 19.755 58.415 22.5389 55.3377 24.3482C52.2133 26.1852 48.0235 27.2592 43.4994 27.2592C38.9754 27.2592 34.7856 26.1852 31.6612 24.3482C28.5839 22.5389 26.2053 19.755 26.2053 16.2844V15.3477C26.2053 14.7954 26.653 14.3477 27.2053 14.3477H29.0485Z" fill="#1C1C22"/>
<path d="M1.64453 79V64.8594H3.40234V77.4375H9.96484V79H1.64453ZM16.4297 79.2148C13.5391 79.2246 11.5859 77.0371 11.5859 73.7461C11.5859 70.4355 13.5391 68.2578 16.4297 68.2578C19.3105 68.2578 21.2441 70.4355 21.2344 73.7461C21.2441 77.0371 19.3105 79.2246 16.4297 79.2148ZM13.2656 73.7461C13.2754 75.8652 14.2715 77.7305 16.4297 77.7305C18.5684 77.7305 19.5547 75.8652 19.5547 73.7461C19.5547 71.6367 18.5684 69.7422 16.4297 69.7422C14.2715 69.7422 13.2754 71.6367 13.2656 73.7461ZM22.9336 75.9922C22.9336 73.5605 25.082 73.0039 26.918 72.8672C27.6016 72.8184 29.3105 72.7207 29.7891 72.7109V71.8516C29.7891 70.5039 28.9883 69.7227 27.3867 69.7227C26.0488 69.7227 25.2383 70.3379 25.0039 71.1484H23.2461C23.4609 69.4395 25.1211 68.2578 27.4648 68.2578C28.8516 68.2578 31.459 68.668 31.4492 72.0078V79H29.7891V77.5547H29.7109C29.3594 78.2676 28.3926 79.2441 26.5469 79.2539C24.5352 79.2441 22.9336 78.0625 22.9336 75.9922ZM24.6133 76.0703C24.623 77.1934 25.5508 77.7598 26.8398 77.75C28.7344 77.7598 29.7891 76.4902 29.7891 75.1523V74.0879C29.291 74.1172 27.6211 74.2441 27.1133 74.2734C25.5898 74.3711 24.623 74.9082 24.6133 76.0703ZM38.1484 79.2148C35.502 79.2246 33.6367 77.0957 33.6367 73.7266C33.6367 70.3672 35.502 68.2578 38.168 68.2578C40.2285 68.2578 40.873 69.5078 41.2344 70.0742H41.3516V64.8594H43.0508V79H41.4102V77.3789H41.2344C40.8633 77.9648 40.1699 79.2246 38.1484 79.2148ZM35.3359 73.6875C35.3359 75.9434 36.3711 77.7109 38.3828 77.7109C40.3262 77.7109 41.4004 76.0703 41.4102 73.6875C41.4004 71.334 40.3555 69.7617 38.3828 69.7617C36.3418 69.7617 35.3359 71.4707 35.3359 73.6875ZM45.9609 79V68.3945H47.6406V79H45.9609ZM45.6289 65.5234C45.6191 64.8984 46.1562 64.4004 46.8008 64.4102C47.4453 64.4004 47.9824 64.8984 47.9922 65.5234C47.9824 66.1387 47.4453 66.6367 46.8008 66.6367C46.1562 66.6367 45.6191 66.1387 45.6289 65.5234ZM51.9961 72.6328V79H50.3164V68.3945H51.9375V70.0547H52.0742C52.5723 68.9707 53.5684 68.2578 55.1797 68.2578C57.3281 68.2578 58.7637 69.5664 58.7539 72.2617V79H57.0742V72.3789C57.0742 70.7383 56.1758 69.7617 54.6719 69.7617C53.1289 69.7617 51.9961 70.7969 51.9961 72.6328ZM65.7461 83.1992C63.1777 83.1992 61.4395 82.0762 61.2539 80.1133H63.0117C63.2363 81.1973 64.2422 81.7344 65.7461 81.7344C67.5625 81.7344 68.6758 80.9434 68.6758 79.1953V77.0469H68.5391C68.1777 77.6328 67.5039 78.834 65.4531 78.8438C62.875 78.834 60.9414 76.8906 60.9414 73.5508C60.9414 70.2891 62.8066 68.2578 65.4727 68.2578C67.5332 68.2578 68.1973 69.5078 68.5781 70.0742H68.7148V68.3945H70.3555V79.293C70.3457 82.0273 68.334 83.1992 65.7461 83.1992ZM62.6406 73.6094C62.6406 75.8066 63.6758 77.3398 65.6875 77.3398C67.6309 77.3398 68.7051 75.9434 68.7148 73.6094C68.7051 71.334 67.6602 69.7617 65.6875 69.7617C63.6465 69.7617 62.6406 71.4707 62.6406 73.6094ZM74.2227 79.1172C73.5391 79.1074 72.9531 78.541 72.9727 77.8477C72.9531 77.1641 73.5391 76.5977 74.2227 76.5977C74.916 76.5977 75.4824 77.1641 75.4727 77.8477C75.4824 78.541 74.916 79.1074 74.2227 79.1172ZM79.3008 79.1172C78.6172 79.1074 78.0312 78.541 78.0508 77.8477C78.0312 77.1641 78.6172 76.5977 79.3008 76.5977C79.9941 76.5977 80.5605 77.1641 80.5508 77.8477C80.5605 78.541 79.9941 79.1074 79.3008 79.1172ZM84.3789 79.1172C83.6953 79.1074 83.1094 78.541 83.1289 77.8477C83.1094 77.1641 83.6953 76.5977 84.3789 76.5977C85.0723 76.5977 85.6387 77.1641 85.6289 77.8477C85.6387 78.541 85.0723 79.1074 84.3789 79.1172Z" fill="#6E6E82"/>
</svg>
