<svg width="112" height="18" viewBox="0 0 112 18" fill="none" xmlns="http://www.w3.org/2000/svg">
<path d="M30.8311 12.9117C30.7206 12.9117 30.6311 12.8222 30.6311 12.7117V3.17015C30.6311 3.05969 30.7206 2.97015 30.8311 2.97015H32.1087C32.1776 2.97015 32.2417 3.00562 32.2782 3.06404L36.5703 9.92139C36.6536 10.0546 36.5579 10.2275 36.4007 10.2275H36.2886C36.1321 10.2275 36.0362 10.0559 36.1183 9.92264L40.3402 3.06529C40.3766 3.00616 40.441 2.97015 40.5105 2.97015H41.7874C41.8977 2.97015 41.9872 3.05951 41.9874 3.16985L42.0016 12.7114C42.0018 12.822 41.9122 12.9117 41.8016 12.9117H40.3757C40.2654 12.9117 40.1759 12.8224 40.1757 12.7121L40.1615 5.84887C40.1614 5.77288 40.2229 5.71118 40.2989 5.71118C40.4069 5.71118 40.4727 5.83004 40.4154 5.92155L36.8058 11.6817C36.7692 11.7401 36.7052 11.7755 36.6363 11.7755H35.9958C35.9274 11.7755 35.8638 11.7406 35.8271 11.6829L32.1809 5.95374C32.114 5.84867 32.1895 5.71118 32.314 5.71118C32.4012 5.71118 32.4718 5.78184 32.4718 5.869V12.7117C32.4718 12.8222 32.3823 12.9117 32.2718 12.9117H30.8311Z" fill="#F1F1F5"/>
<path d="M49.5292 13.0537C48.7177 13.0537 47.9706 12.9259 47.2877 12.6703C46.6049 12.4146 46.0111 12.0596 45.5064 11.6051C45.0017 11.1412 44.6108 10.6015 44.3337 9.98606C44.0566 9.36116 43.918 8.67945 43.918 7.94094C43.918 7.20242 44.0566 6.52545 44.3337 5.91001C44.6108 5.28512 45.0017 4.74543 45.5064 4.29096C46.0111 3.82702 46.6049 3.46723 47.2877 3.21159C47.9706 2.95595 48.7128 2.82812 49.5144 2.82812C50.3259 2.82812 51.0681 2.95595 51.741 3.21159C52.4239 3.46723 53.0177 3.82702 53.5224 4.29096C54.0271 4.74543 54.418 5.28512 54.6951 5.91001C54.9722 6.52545 55.1107 7.20242 55.1107 7.94094C55.1107 8.67945 54.9722 9.36116 54.6951 9.98606C54.418 10.611 54.0271 11.1506 53.5224 11.6051C53.0177 12.0596 52.4239 12.4146 51.741 12.6703C51.0681 12.9259 50.3308 13.0537 49.5292 13.0537ZM49.5144 11.4347C50.0389 11.4347 50.5238 11.3495 50.9691 11.1791C51.4145 11.0086 51.8004 10.7672 52.127 10.4547C52.4536 10.1328 52.7059 9.76356 52.8841 9.34696C53.0721 8.92089 53.1661 8.45222 53.1661 7.94094C53.1661 7.42966 53.0721 6.96572 52.8841 6.54912C52.7059 6.12305 52.4536 5.75379 52.127 5.44134C51.8004 5.11942 51.4145 4.87325 50.9691 4.70282C50.5238 4.5324 50.0389 4.44718 49.5144 4.44718C48.9899 4.44718 48.505 4.5324 48.0596 4.70282C47.6242 4.87325 47.2382 5.11942 46.9018 5.44134C46.5752 5.75379 46.3179 6.12305 46.1298 6.54912C45.9517 6.96572 45.8626 7.42966 45.8626 7.94094C45.8626 8.44275 45.9517 8.90669 46.1298 9.33276C46.3179 9.75883 46.5752 10.1328 46.9018 10.4547C47.2283 10.7672 47.6143 11.0086 48.0596 11.1791C48.505 11.3495 48.9899 11.4347 49.5144 11.4347Z" fill="#F1F1F5"/>
<path d="M61.8619 13.0537C61.0504 13.0537 60.3033 12.9307 59.6204 12.6845C58.9475 12.4289 58.3586 12.0738 57.8539 11.6193C57.3492 11.1554 56.9583 10.611 56.6812 9.98606C56.4041 9.36116 56.2656 8.67945 56.2656 7.94094C56.2656 7.20242 56.4041 6.52071 56.6812 5.89581C56.9583 5.27091 57.3492 4.73123 57.8539 4.27675C58.3685 3.81282 58.9673 3.45776 59.6501 3.21159C60.333 2.95595 61.0801 2.82812 61.8916 2.82812C62.7724 2.82812 63.5641 2.96541 64.2667 3.23999C64.9137 3.4893 65.4668 3.84399 65.9261 4.30405C66.0036 4.38166 65.9983 4.50744 65.9182 4.58227L64.9838 5.4544C64.9063 5.52677 64.786 5.52562 64.7065 5.45548C64.3397 5.13217 63.9457 4.89075 63.5245 4.73123C63.0594 4.54186 62.5448 4.44718 61.9807 4.44718C61.4364 4.44718 60.9317 4.5324 60.4666 4.70282C60.0014 4.87325 59.6006 5.11469 59.2642 5.42714C58.9277 5.73959 58.6654 6.10885 58.4774 6.53491C58.2993 6.96098 58.2102 7.42966 58.2102 7.94094C58.2102 8.44275 58.2993 8.90669 58.4774 9.33276C58.6654 9.75883 58.9277 10.1328 59.2642 10.4547C59.6006 10.7672 59.9965 11.0086 60.4517 11.1791C60.9069 11.3495 61.4116 11.4347 61.9658 11.4347C62.4804 11.4347 62.9753 11.3589 63.4503 11.2075C63.8762 11.0661 64.2831 10.8443 64.6709 10.5422C64.7599 10.4729 64.889 10.4851 64.9593 10.5733L65.8021 11.6302C65.8719 11.7178 65.8565 11.846 65.765 11.9106C65.2587 12.2682 64.6801 12.5451 64.0292 12.7413C63.3167 12.9496 62.5943 13.0537 61.8619 13.0537ZM64.2772 11.5713C64.1778 11.5581 64.1034 11.4733 64.1034 11.373V8.02732C64.1034 7.91686 64.193 7.82732 64.3034 7.82732H65.7293C65.8398 7.82732 65.9293 7.91686 65.9293 8.02732V11.5616C65.9293 11.6824 65.8229 11.7757 65.7031 11.7598L64.2772 11.5713Z" fill="#F1F1F5"/>
<path d="M67.1716 12.9117C67.025 12.9117 66.9282 12.7592 66.9906 12.6266L71.4785 3.08502C71.5114 3.01491 71.582 2.97015 71.6594 2.97015H73.3058C73.3832 2.97015 73.4537 3.0148 73.4867 3.0848L77.9888 12.6264C78.0514 12.759 77.9546 12.9117 77.8079 12.9117H76.234C76.1553 12.9117 76.0838 12.8655 76.0516 12.7936L72.2083 4.23201C72.1489 4.09968 72.2457 3.9501 72.3907 3.9501H72.5451C72.69 3.9501 72.7869 4.09945 72.7277 4.23176L68.8986 12.7934C68.8664 12.8654 68.7949 12.9117 68.716 12.9117H67.1716ZM69.2931 10.611C69.1547 10.611 69.0582 10.4737 69.1049 10.3434L69.481 9.29481C69.5095 9.21534 69.5848 9.16233 69.6692 9.16233H74.999C75.0834 9.16233 75.1587 9.21534 75.1872 9.29481L75.5633 10.3434C75.61 10.4737 75.5135 10.611 75.375 10.611H69.2931Z" fill="#F1F1F5"/>
<path fill-rule="evenodd" clip-rule="evenodd" d="M2 0C0.895431 0 0 0.895431 0 2V12.8478C0 13.9524 0.895429 14.8478 2 14.8478H18.0252L21.3222 17.4456C21.9781 17.9624 22.941 17.4952 22.9411 16.6602L22.9412 12.8724C22.9413 12.8642 22.9414 12.856 22.9414 12.8478V2C22.9414 0.895431 22.046 0 20.9414 0H2ZM4.30132 6.45619C4.78263 6.45619 5.17282 6.84638 5.17282 7.3277C5.17282 8.01212 5.67035 8.79288 6.83451 9.45072C7.97659 10.0961 9.61363 10.5232 11.4705 10.5232C13.3273 10.5232 14.9643 10.0961 16.1064 9.45072C17.2706 8.79288 17.7681 8.01212 17.7681 7.3277C17.7681 6.84638 18.1583 6.45619 18.6396 6.45619H18.6959C19.1772 6.45619 19.5674 6.84638 19.5674 7.3277C19.5674 8.88942 18.4538 10.1422 17.013 10.9563C15.5502 11.7829 13.5886 12.2662 11.4705 12.2662C9.35232 12.2662 7.39072 11.7829 5.92788 10.9563C4.48714 10.1422 3.37349 8.88942 3.37349 7.3277C3.37349 6.84638 3.76368 6.45619 4.245 6.45619H4.30132Z" fill="url(#paint0_linear_5_5582)"/>
<path d="M79.8349 12.9117C79.7244 12.9117 79.6349 12.8222 79.6349 12.7117V11.75C79.6349 11.7023 79.6519 11.6562 79.6829 11.62L86.1114 4.10891C86.2132 3.98993 86.4061 4.02885 86.4538 4.17801L86.4837 4.27145C86.525 4.4005 86.4288 4.5324 86.2933 4.5324H79.9388C79.8283 4.5324 79.7388 4.44285 79.7388 4.3324V3.17015C79.7388 3.05969 79.8283 2.97015 79.9388 2.97015H88.104C88.2145 2.97015 88.304 3.05969 88.304 3.17015V4.13184C88.304 4.17953 88.287 4.22566 88.256 4.26189L81.8223 11.779C81.7216 11.8967 81.5311 11.8602 81.4811 11.7136L81.4471 11.6141C81.4029 11.4843 81.4993 11.3495 81.6364 11.3495H88.297C88.4075 11.3495 88.497 11.439 88.497 11.5495V12.7117C88.497 12.8222 88.4075 12.9117 88.297 12.9117H79.8349Z" fill="url(#paint1_linear_5_5582)"/>
<path d="M94.8693 13.0538C94.0578 13.0538 93.3107 12.9259 92.6278 12.6703C91.945 12.4146 91.3512 12.0596 90.8465 11.6051C90.3418 11.1412 89.9509 10.6015 89.6738 9.98606C89.3967 9.36116 89.2581 8.67945 89.2581 7.94094C89.2581 7.20242 89.3967 6.52545 89.6738 5.91001C89.9509 5.28512 90.3418 4.74543 90.8465 4.29096C91.3512 3.82702 91.945 3.46723 92.6278 3.21159C93.3107 2.95595 94.0529 2.82812 94.8545 2.82812C95.666 2.82812 96.4082 2.95595 97.0812 3.21159C97.764 3.46723 98.3578 3.82702 98.8625 4.29096C99.3672 4.74543 99.7581 5.28512 100.035 5.91001C100.312 6.52545 100.451 7.20242 100.451 7.94094C100.451 8.67945 100.312 9.36116 100.035 9.98606C99.7581 10.611 99.3672 11.1506 98.8625 11.6051C98.3578 12.0596 97.764 12.4146 97.0812 12.6703C96.4082 12.9259 95.6709 13.0538 94.8693 13.0538ZM94.8545 11.4347C95.379 11.4347 95.8639 11.3495 96.3092 11.1791C96.7546 11.0086 97.1405 10.7672 97.4671 10.4547C97.7937 10.1328 98.046 9.76356 98.2242 9.34696C98.4122 8.92089 98.5062 8.45222 98.5062 7.94094C98.5062 7.42966 98.4122 6.96572 98.2242 6.54912C98.046 6.12305 97.7937 5.75379 97.4671 5.44134C97.1405 5.11942 96.7546 4.87325 96.3092 4.70282C95.8639 4.5324 95.379 4.44718 94.8545 4.44718C94.33 4.44718 93.8451 4.5324 93.3997 4.70282C92.9643 4.87325 92.5783 5.11942 92.2419 5.44134C91.9153 5.75379 91.658 6.12305 91.47 6.54912C91.2918 6.96572 91.2028 7.42966 91.2028 7.94094C91.2028 8.44275 91.2918 8.90669 91.47 9.33276C91.658 9.75883 91.9153 10.1328 92.2419 10.4547C92.5684 10.7672 92.9544 11.0086 93.3997 11.1791C93.8451 11.3495 94.33 11.4347 94.8545 11.4347Z" fill="url(#paint2_linear_5_5582)"/>
<path d="M101.048 12.9117C100.902 12.9117 100.805 12.7592 100.867 12.6266L105.355 3.08502C105.388 3.01491 105.459 2.97015 105.536 2.97015H107.183C107.26 2.97015 107.331 3.0148 107.364 3.0848L111.866 12.6264C111.928 12.759 111.831 12.9117 111.685 12.9117H110.111C110.032 12.9117 109.961 12.8655 109.928 12.7936L106.085 4.23201C106.026 4.09968 106.123 3.9501 106.268 3.9501H106.422C106.567 3.9501 106.664 4.09945 106.605 4.23176L102.775 12.7934C102.743 12.8654 102.672 12.9117 102.593 12.9117H101.048ZM103.17 10.611C103.032 10.611 102.935 10.4737 102.982 10.3434L103.358 9.29481C103.386 9.21534 103.462 9.16233 103.546 9.16233H108.876C108.96 9.16233 109.036 9.21534 109.064 9.29481L109.44 10.3434C109.487 10.4737 109.39 10.611 109.252 10.611H103.17Z" fill="url(#paint3_linear_5_5582)"/>
<defs>
<linearGradient id="paint0_linear_5_5582" x1="0" y1="0" x2="23.3931" y2="0.620115" gradientUnits="userSpaceOnUse">
<stop stop-color="#5097FA"/>
<stop offset="1" stop-color="#5363FF"/>
</linearGradient>
<linearGradient id="paint1_linear_5_5582" x1="79.6349" y1="2.82813" x2="112.524" y2="4.95255" gradientUnits="userSpaceOnUse">
<stop stop-color="#5097FA"/>
<stop offset="1" stop-color="#5363FF"/>
</linearGradient>
<linearGradient id="paint2_linear_5_5582" x1="79.6349" y1="2.82813" x2="112.524" y2="4.95255" gradientUnits="userSpaceOnUse">
<stop stop-color="#5097FA"/>
<stop offset="1" stop-color="#5363FF"/>
</linearGradient>
<linearGradient id="paint3_linear_5_5582" x1="79.6349" y1="2.82813" x2="112.524" y2="4.95255" gradientUnits="userSpaceOnUse">
<stop stop-color="#5097FA"/>
<stop offset="1" stop-color="#5363FF"/>
</linearGradient>
</defs>
</svg>
