<svg width="100%" height="100%" viewBox="0 0 20 20" fill="none" xmlns="http://www.w3.org/2000/svg">
<path d="M9.52179 11.8537L6.37067 8.70256C6.3272 8.6591 6.29297 8.61056 6.26797 8.55696C6.24297 8.50335 6.23047 8.4459 6.23047 8.38464C6.23047 8.2621 6.2719 8.15565 6.35477 8.06526C6.43762 7.97488 6.54683 7.92969 6.68239 7.92969H13.3208C13.4564 7.92969 13.5656 7.97531 13.6484 8.06656C13.7313 8.15783 13.7727 8.2643 13.7727 8.38596C13.7727 8.4164 13.7259 8.522 13.6323 8.70276L10.4814 11.8537C10.409 11.9261 10.3341 11.979 10.2568 12.0123C10.1794 12.0457 10.0944 12.0623 10.0016 12.0623C9.90881 12.0623 9.82375 12.0457 9.74642 12.0123C9.6691 11.979 9.59423 11.9261 9.52179 11.8537Z" fill="#9FA6B2"/>
</svg>
