<svg width="100%" height="100%" viewBox="0 0 24 24" fill="none" xmlns="http://www.w3.org/2000/svg">
<g id="icon">
<path id="Vector" d="M9.51984 12.174L6.36872 9.02288C6.32525 8.97941 6.29102 8.93088 6.26602 8.87728C6.24102 8.82366 6.22852 8.76622 6.22852 8.70495C6.22852 8.58242 6.26995 8.47596 6.35282 8.38558C6.43567 8.29519 6.54487 8.25 6.68044 8.25H13.3188C13.4544 8.25 13.5636 8.29563 13.6465 8.38688C13.7293 8.47814 13.7708 8.58461 13.7708 8.70628C13.7708 8.73671 13.724 8.84231 13.6304 9.02308L10.4794 12.174C10.407 12.2464 10.3321 12.2993 10.2548 12.3327C10.1775 12.366 10.0924 12.3827 9.99964 12.3827C9.90686 12.3827 9.8218 12.366 9.74447 12.3327C9.66715 12.2993 9.59227 12.2464 9.51984 12.174Z" fill="#9FA6B2"/>
</g>
</svg>
