<svg width="100%" height="100%" viewBox="0 0 16 32" fill="none" xmlns="http://www.w3.org/2000/svg">
<g id="star_left">
<path id="Vector" d="M9.2571 27.8113L15.9998 23.7611V2.66699C15.7488 2.66699 15.5104 2.73117 15.2849 2.85952C15.0594 2.9879 14.8911 3.18598 14.78 3.45376L11.7303 10.6545L3.87431 11.3384C3.56991 11.3848 3.32993 11.4839 3.15439 11.6355C2.97885 11.7871 2.84441 11.9824 2.75108 12.2214C2.65778 12.4604 2.64167 12.7067 2.70277 12.9601C2.76386 13.2135 2.90551 13.4365 3.1277 13.629L9.08049 18.7615L7.29068 26.3871C7.21511 26.6726 7.23289 26.9332 7.34402 27.1689C7.45511 27.4046 7.61286 27.5955 7.81726 27.7416C8.02169 27.8876 8.25001 27.9723 8.50222 27.9956C8.75439 28.0188 9.00602 27.9573 9.2571 27.8113Z" fill="current"/>
</g>
</svg>