<svg width="24" height="24" viewBox="0 0 24 24" fill="none" xmlns="http://www.w3.org/2000/svg">
<g id="status=close_300">
<path id="Vector" d="M12 13.2287L6.0814 19.1473C5.91987 19.3088 5.71683 19.3915 5.47228 19.3952C5.22775 19.399 5.02098 19.3163 4.85196 19.1473C4.68293 18.9783 4.59842 18.7734 4.59842 18.5326C4.59842 18.2918 4.68293 18.0869 4.85196 17.9179L10.7706 11.9993L4.85196 6.08063C4.69042 5.91911 4.60778 5.71607 4.60405 5.47152C4.6003 5.22699 4.68293 5.02021 4.85196 4.8512C5.02098 4.68217 5.22588 4.59766 5.46668 4.59766C5.70748 4.59766 5.91239 4.68217 6.0814 4.8512L12 10.7698L17.9186 4.8512C18.0802 4.68966 18.2832 4.60702 18.5277 4.60329C18.7723 4.59953 18.9791 4.68217 19.1481 4.8512C19.3171 5.02021 19.4016 5.22512 19.4016 5.46592C19.4016 5.70672 19.3171 5.91162 19.1481 6.08063L13.2295 11.9993L19.1481 17.9179C19.3096 18.0794 19.3922 18.2824 19.396 18.527C19.3997 18.7715 19.3171 18.9783 19.1481 19.1473C18.9791 19.3163 18.7741 19.4008 18.5333 19.4008C18.2925 19.4008 18.0876 19.3163 17.9186 19.1473L12 13.2287Z" fill="#F1F1F5"/>
</g>
</svg>
